Coordinates
version=1
nRows=13
nColumns=38
inDegrees=no

Units are S.I. units (second, meters, Newtons, ...)
If the header above contains a line with 'inDegrees', this indicates whether rotational values are in degrees (yes) or radians (no).

endheader
time	pelvis_tilt	pelvis_list	pelvis_rotation	pelvis_tx	pelvis_ty	pelvis_tz	hip_flexion_r	hip_adduction_r	hip_rotation_r	knee_angle_r	ankle_angle_r	subtalar_angle_r	mtp_angle_r	hip_flexion_l	hip_adduction_l	hip_rotation_l	knee_angle_l	ankle_angle_l	subtalar_angle_l	mtp_angle_l	lumbar_extension	lumbar_bending	lumbar_rotation	arm_flex_r	arm_add_r	arm_rot_r	elbow_flex_r	pro_sup_r	wrist_flex_r	wrist_dev_r	arm_flex_l	arm_add_l	arm_rot_l	elbow_flex_l	pro_sup_l	wrist_flex_l	wrist_dev_l
1.77	-0.224478	0.0544972	-0.0946268	0.728038	0.97075	-0.336029	0.128796	-0.03236	-0.0581812	-0.600317	0.25636	0.00521278	0.00300839	1.03885	-0.0616689	-0.174879	-2.07485	0.0987292	0.0170338	0.0012027	0.0196118	-0.0144765	0.0989299	0.0155056	-0.364945	0.0180838	1.48198	1.59599	0.0338441	-0.0330095	-0.706503	-0.573557	0.332524	1.40034	1.43277	0.0274995	-0.0146651
1.78	-0.230248	0.0624632	-0.0921983	0.731673	0.978347	-0.335743	0.0615991	-0.0513477	-0.0792622	-0.544831	0.16076	0.00521278	0.00300839	1.07296	-0.058321	-0.185924	-1.97145	0.106016	0.0170338	0.0012027	0.0380264	-0.0301417	0.115911	0.0139638	-0.35913	0.0114528	1.53529	1.59413	0.0338441	-0.0330095	-0.76612	-0.576014	0.307498	1.43849	1.41283	0.0274995	-0.0146651
1.79	-0.23753	0.066365	-0.0889007	0.735361	0.985528	-0.335543	0.00321187	-0.0661023	-0.104432	-0.500788	0.0701269	0.00521278	0.00300839	1.09749	-0.058096	-0.193892	-1.85667	0.110485	0.0170338	0.0012027	0.0580844	-0.0409794	0.130396	0.00913237	-0.355366	0.00845026	1.58601	1.58957	0.0338441	-0.0330095	-0.823164	-0.574778	0.277388	1.47509	1.39724	0.0274995	-0.0146651
1.8	-0.245751	0.0664355	-0.0848809	0.738865	0.992108	-0.335428	-0.0453239	-0.0767467	-0.131885	-0.472609	-0.00825883	0.00521278	0.00300839	1.11209	-0.05982	-0.198231	-1.73131	0.112356	0.0170338	0.0012027	0.0786442	-0.0471681	0.142095	0.00235702	-0.353405	0.00919515	1.63185	1.58389	0.0338441	-0.0330095	-0.875821	-0.570198	0.24366	1.50879	1.3848	0.0274995	-0.0146651
1.81	-0.254117	0.0632139	-0.0803836	0.742041	0.99802	-0.335372	-0.0838315	-0.0838341	-0.159444	-0.463522	-0.0694042	0.00521278	0.00300839	1.11625	-0.0622741	-0.19891	-1.596	0.111873	0.0170338	0.0012027	0.0984318	-0.0493353	0.150896	-0.00532554	-0.352766	0.0133343	1.67084	1.57845	0.0338441	-0.0330095	-0.922313	-0.563014	0.208287	1.53867	1.37395	0.0274995	-0.0146651
1.82	-0.261745	0.0573929	-0.0756814	0.744837	1.00327	-0.335337	-0.112717	-0.0881701	-0.184927	-0.475396	-0.111211	0.00521278	0.00300839	1.10953	-0.0643641	-0.196289	-1.45154	0.109163	0.0170338	0.0012027	0.116274	-0.0484003	0.156833	-0.0132848	-0.352846	0.020157	1.70146	1.57404	0.0338441	-0.0330095	-0.961048	-0.554257	0.173461	1.56421	1.3633	0.0274995	-0.0146651
1.83	-0.267848	0.0498027	-0.07099	0.747263	1.00786	-0.335292	-0.132728	-0.0906099	-0.206506	-0.508752	-0.134339	0.00521278	0.00300839	1.09191	-0.0652582	-0.191006	-1.29937	0.104144	0.0170338	0.0012027	0.131224	-0.0453837	0.160052	-0.0213171	-0.353021	0.0287324	1.72279	1.5708	0.0338441	-0.0330095	-0.990756	-0.545147	0.141311	1.58521	1.35198	0.0274995	-0.0146651
1.84	-0.271852	0.0412678	-0.0664008	0.749363	1.01177	-0.335232	-0.144787	-0.0919258	-0.222949	-0.562873	-0.141487	0.00521278	0.00300839	1.06388	-0.0644596	-0.183946	-1.1419	0.096528	0.0170338	0.0012027	0.142628	-0.0413107	0.160755	-0.0295863	-0.352745	0.0380583	1.73452	1.56824	0.0338441	-0.0330095	-1.01059	-0.536981	0.113658	1.60177	1.33979	0.0274995	-0.0146651
1.85	-0.273409	0.0325217	-0.0618559	0.751187	1.01496	-0.335166	-0.14989	-0.0927147	-0.233723	-0.635997	-0.136455	0.00521278	0.00300839	1.02665	-0.0618382	-0.176243	-0.98273	0.085925	0.0170338	0.0012027	0.150134	-0.0371228	0.159148	-0.0385046	-0.351623	0.047209	1.73692	1.56536	0.0338441	-0.0330095	-1.02018	-0.531009	0.0918694	1.6143	1.32716	0.0274995	-0.0146651
1.86	-0.272395	0.0241606	-0.0571667	0.752771	1.01734	-0.33512	-0.149041	-0.0933714	-0.238974	-0.725575	-0.123321	0.00521278	0.00300839	0.982092	-0.0576144	-0.169282	-0.826659	0.0720275	0.0170338	0.0012027	0.15367	-0.0335993	0.155409	-0.0485826	-0.349461	0.055462	1.73071	1.56103	0.0338441	-0.0330095	-1.01959	-0.52831	0.0768212	1.62346	1.31482	0.0274995	-0.0146651
1.87	-0.26888	0.0166161	-0.0520702	0.754126	1.01881	-0.335119	-0.143166	-0.0941363	-0.239423	-0.828585	-0.10586	0.00521278	0.00300839	0.932674	-0.0522744	-0.164578	-0.679433	0.0548416	0.0170338	0.0012027	0.153392	-0.0313014	0.149663	-0.0602784	-0.346277	0.0623886	1.71694	1.55424	0.0338441	-0.0330095	-1.00928	-0.529675	0.0689456	1.63003	1.30349	0.0274995	-0.0146651
1.88	-0.263089	0.0101443	-0.0463038	0.755239	1.01933	-0.335176	-0.133019	-0.095181	-0.236215	-0.941871	-0.0871784	0.00521278	0.00300839	0.881322	-0.046421	-0.163478	-0.547352	0.0349542	0.0170338	0.0012027	0.149647	-0.0305422	0.14198	-0.0738776	-0.342292	0.0678857	1.69675	1.54447	0.0338441	-0.0330095	-0.989956	-0.535528	0.0683221	1.63487	1.29367	0.0274995	-0.0146651
1.89	-0.255376	0.00481992	-0.0396798	0.756083	1.01886	-0.335305	-0.119086	-0.0966642	-0.2307	-1.06244	-0.0695114	0.00521278	0.00300839	0.831172	-0.0406162	-0.16668	-0.436716	0.0137885	0.0170338	0.0012027	0.142904	-0.0313772	0.132372	-0.0894217	-0.337872	0.0721383	1.67126	1.53169	0.0338441	-0.0330095	-0.962421	-0.545888	0.0747751	1.63875	1.28563	0.0274995	-0.0146651
